<svg id="Layer_1" xmlns="http://www.w3.org/2000/svg"  width="2500" height="2500" viewBox="0 0 512 512">
	<path fill-rule="evenodd" clip-rule="evenodd" fill="#2E67B2" d="M512,256c0,141.389-114.617,256-255.998,256 C114.617,512,0,397.389,0,256C0,114.616,114.617,0,256.002,0C397.383,0,512,114.616,512,256z"/>
<path fill-rule="evenodd" clip-rule="evenodd" fill="#FFF" d="M255.998,340.294c-22.394,29.579-22.394,58.67,0,87.274
	C278.396,398.964,278.396,369.873,255.998,340.294 M255.998,98.787c-51.404,64.841-51.404,130.807,0,197.898
	C307.406,229.593,307.406,163.627,255.998,98.787z M139.574,387.806c18.949-43.072,58.643-64.329,102.971-63.788
	c-56.242-58.37-105.096-81.893-146.548-70.536c5.504,32.183,27.894,59.523,67.136,82.063
	c-45.157-14.262-79.127-48.756-101.902-103.47c67.753-11.516,121.1,5.191,160.046,50.06
	c-35.514-75.926-23.954-150.836,34.722-224.711c58.671,73.875,70.235,148.785,34.729,224.711
	c38.946-44.869,92.288-61.575,160.046-50.06c-22.775,54.714-56.745,89.208-101.902,103.47c39.247-22.54,61.62-49.881,67.132-82.063
	c-41.456-11.357-90.313,12.166-146.556,70.536c44.336-0.541,84.03,20.716,102.983,63.788c-33.503,7.486-61.052,2.356-82.637-15.406
	c23.583,11.934,43.934,13.717,61.056,5.345c-7.495-22.673-40.641-38.336-83.039-46.992c24.192,41.883,20.253,83.16-11.812,123.82
	c-32.061-40.66-35.997-81.938-11.816-123.82c-42.391,8.656-75.537,24.319-83.031,46.992c17.117,8.372,37.472,6.589,61.06-5.345
	C200.621,390.162,173.073,395.292,139.574,387.806z"/>
</svg>
