<svg xmlns="http://www.w3.org/2000/svg" viewBox="0 0 319.18 181.22"><defs><style>.cls-1{fill:none;stroke:#6d6e71;stroke-miterlimit:10;stroke-width:5px;}.cls-2{font-size:118px;fill:#6d6e71;font-family:Lato-Light, Lato;letter-spacing:-0.08em;}</style></defs><title>oip-basic</title><g id="Layer_2" data-name="Layer 2"><g id="Layer_1-2" data-name="Layer 1"><path class="cls-1" d="M65.22,103.87a12.06,12.06,0,0,0,12.06,12.07h26.9a12.06,12.06,0,0,0,11.71-12.06V77.33a12.06,12.06,0,0,0-12.07-12.06H81.18a28,28,0,0,1-28-28h0V14.56A12.07,12.07,0,0,0,41.11,2.5H14.56A12.07,12.07,0,0,0,2.5,14.56V41.11A12.08,12.08,0,0,0,14.56,53.18h3.75a6,6,0,1,1,0,12.06v0H14.25a12.05,12.05,0,0,0-11.75,12v26.54a12.07,12.07,0,0,0,12.06,12.07h3.75v0a6,6,0,0,1,0,12.07v0h-4.1A12.06,12.06,0,0,0,2.5,140.11v26.55a12.07,12.07,0,0,0,12.06,12.06H41.11a12.06,12.06,0,0,0,12.06-11.85,1.48,1.48,0,0,0,0-.21V140.11a12.07,12.07,0,0,0-12.07-12.06H37.35v0a6,6,0,0,1,0-12.07v0A28,28,0,0,1,65.2,143.89h0v22.77a12.05,12.05,0,0,0,12.06,12.06h26.54a12.06,12.06,0,0,0,12.07-12.06V140.11a12.06,12.06,0,0,0-12.07-12.06H81.14a28,28,0,0,1-27.69-24.13,26.88,26.88,0,0,1-.26-3.83V100h0V77.33A12.07,12.07,0,0,0,41.11,65.27H37.35v0a6,6,0,0,1,0-12.06h1.22A28,28,0,0,1,65,77.29a26.66,26.66,0,0,1,.25,2.86v23.72Z"/><text class="cls-2" transform="translate(132.06 143.68)">OIP</text></g></g></svg>