<svg class="nc-icon glyph" xmlns="http://www.w3.org/2000/svg" xmlns:xlink="http://www.w3.org/1999/xlink" x="0px" y="0px" width="24px" height="24px" viewBox="0 0 24 24">
<g>
<path fill="#e1e1e1" d="M20.9,5.7C20.8,5.3,20.4,5,20,5h-1c-0.6,0-1,0.4-1,1s0.4,1,1,1h0.3l2.3,7H16c-0.6,0-1,0.4-1,1v2H9v-2
	c0-0.6-0.4-1-1-1H2.4l2.3-7H5c0.6,0,1-0.4,1-1S5.6,5,5,5H4C3.6,5,3.2,5.3,3.1,5.7l-3,9C0,14.8,0,14.9,0,15v8c0,0.6,0.4,1,1,1h22
	c0.6,0,1-0.4,1-1v-8c0-0.1,0-0.2-0.1-0.3L20.9,5.7z"></path>
<path data-color="color-2" fill="#e1e1e1" d="M9.7,5.7L11,4.4V11c0,0.6,0.4,1,1,1s1-0.4,1-1V4.4l1.3,1.3C14.5,5.9,14.7,6,15,6
	s0.5-0.1,0.7-0.3c0.4-0.4,0.4-1,0-1.4l-3-3c-0.1-0.1-0.2-0.2-0.3-0.2c-0.2-0.1-0.5-0.1-0.8,0c-0.1,0.1-0.2,0.1-0.3,0.2l-3,3
	c-0.4,0.4-0.4,1,0,1.4S9.3,6.1,9.7,5.7z"></path>
</g>
</svg>